<mxfile host="app.diagrams.net" agent="Mozilla/5.0 (Windows NT 10.0; Win64; x64) AppleWebKit/537.36 (KHTML, like Gecko) Chrome/134.0.0.0 Safari/537.36" version="26.1.0">
  <diagram name="1 oldal" id="r0B3LCxsrtJr_iVTSG-w">
    <mxGraphModel dx="2442" dy="1984" grid="1" gridSize="10" guides="1" tooltips="1" connect="1" arrows="1" fold="1" page="1" pageScale="1" pageWidth="827" pageHeight="1169" math="0" shadow="0">
      <root>
        <mxCell id="0" />
        <mxCell id="1" parent="0" />
        <mxCell id="wgjURWxsdRWQiaUaBaEl-125" value="" style="ellipse;whiteSpace=wrap;html=1;" vertex="1" parent="1">
          <mxGeometry x="1200" y="190" width="120" height="80" as="geometry" />
        </mxCell>
        <mxCell id="wgjURWxsdRWQiaUaBaEl-114" value="" style="ellipse;whiteSpace=wrap;html=1;" vertex="1" parent="1">
          <mxGeometry x="740" y="180" width="120" height="80" as="geometry" />
        </mxCell>
        <mxCell id="wgjURWxsdRWQiaUaBaEl-113" value="" style="ellipse;whiteSpace=wrap;html=1;" vertex="1" parent="1">
          <mxGeometry x="540" y="390" width="120" height="80" as="geometry" />
        </mxCell>
        <mxCell id="wgjURWxsdRWQiaUaBaEl-112" value="" style="ellipse;whiteSpace=wrap;html=1;" vertex="1" parent="1">
          <mxGeometry x="190" y="390" width="120" height="80" as="geometry" />
        </mxCell>
        <mxCell id="wgjURWxsdRWQiaUaBaEl-111" value="" style="ellipse;whiteSpace=wrap;html=1;" vertex="1" parent="1">
          <mxGeometry x="-510" y="140" width="120" height="80" as="geometry" />
        </mxCell>
        <mxCell id="wgjURWxsdRWQiaUaBaEl-108" value="" style="ellipse;whiteSpace=wrap;html=1;" vertex="1" parent="1">
          <mxGeometry x="70" y="200" width="120" height="80" as="geometry" />
        </mxCell>
        <mxCell id="wgjURWxsdRWQiaUaBaEl-1" value="&lt;font style=&quot;vertical-align: inherit;&quot;&gt;&lt;font style=&quot;vertical-align: inherit;&quot;&gt;gyakornok&lt;/font&gt;&lt;/font&gt;" style="ellipse;whiteSpace=wrap;html=1;" vertex="1" parent="1">
          <mxGeometry x="550" y="390" width="100" height="80" as="geometry" />
        </mxCell>
        <mxCell id="wgjURWxsdRWQiaUaBaEl-2" value="&lt;font style=&quot;vertical-align: inherit;&quot;&gt;&lt;font style=&quot;vertical-align: inherit;&quot;&gt;szakacs&lt;/font&gt;&lt;/font&gt;" style="ellipse;whiteSpace=wrap;html=1;" vertex="1" parent="1">
          <mxGeometry x="200" y="390" width="100" height="80" as="geometry" />
        </mxCell>
        <mxCell id="wgjURWxsdRWQiaUaBaEl-3" value="&lt;font style=&quot;vertical-align: inherit;&quot;&gt;&lt;font style=&quot;vertical-align: inherit;&quot;&gt;etterem&lt;/font&gt;&lt;/font&gt;" style="ellipse;whiteSpace=wrap;html=1;" vertex="1" parent="1">
          <mxGeometry x="-500" y="140" width="100" height="80" as="geometry" />
        </mxCell>
        <mxCell id="wgjURWxsdRWQiaUaBaEl-4" value="&lt;font style=&quot;vertical-align: inherit;&quot;&gt;&lt;font style=&quot;vertical-align: inherit;&quot;&gt;vendeg&lt;/font&gt;&lt;/font&gt;" style="ellipse;whiteSpace=wrap;html=1;" vertex="1" parent="1">
          <mxGeometry x="80" y="200" width="100" height="80" as="geometry" />
        </mxCell>
        <mxCell id="wgjURWxsdRWQiaUaBaEl-5" value="&lt;font style=&quot;vertical-align: inherit;&quot;&gt;&lt;font style=&quot;vertical-align: inherit;&quot;&gt;&lt;font style=&quot;vertical-align: inherit;&quot;&gt;&lt;font style=&quot;vertical-align: inherit;&quot;&gt;foszakacs&lt;/font&gt;&lt;/font&gt;&lt;/font&gt;&lt;/font&gt;" style="ellipse;whiteSpace=wrap;html=1;" vertex="1" parent="1">
          <mxGeometry x="750" y="180" width="100" height="80" as="geometry" />
        </mxCell>
        <mxCell id="wgjURWxsdRWQiaUaBaEl-6" value="&lt;font style=&quot;vertical-align: inherit;&quot;&gt;&lt;font style=&quot;vertical-align: inherit;&quot;&gt;&lt;u&gt;E-sz&lt;/u&gt;&lt;/font&gt;&lt;/font&gt;" style="rhombus;whiteSpace=wrap;html=1;" vertex="1" parent="1">
          <mxGeometry x="440" y="380" width="80" height="80" as="geometry" />
        </mxCell>
        <mxCell id="wgjURWxsdRWQiaUaBaEl-7" value="&lt;font style=&quot;vertical-align: inherit;&quot;&gt;&lt;font style=&quot;vertical-align: inherit;&quot;&gt;&lt;u&gt;E-gy&lt;/u&gt;&lt;/font&gt;&lt;/font&gt;" style="rhombus;whiteSpace=wrap;html=1;" vertex="1" parent="1">
          <mxGeometry x="690" y="380" width="80" height="80" as="geometry" />
        </mxCell>
        <mxCell id="wgjURWxsdRWQiaUaBaEl-8" value="&lt;font style=&quot;vertical-align: inherit;&quot;&gt;&lt;font style=&quot;vertical-align: inherit;&quot;&gt;&lt;u&gt;E-f&lt;/u&gt;&lt;/font&gt;&lt;/font&gt;" style="rhombus;whiteSpace=wrap;html=1;" vertex="1" parent="1">
          <mxGeometry x="910" y="180" width="80" height="80" as="geometry" />
        </mxCell>
        <mxCell id="wgjURWxsdRWQiaUaBaEl-9" value="&lt;font style=&quot;vertical-align: inherit;&quot;&gt;&lt;font style=&quot;vertical-align: inherit;&quot;&gt;&lt;u&gt;E-v&lt;/u&gt;&lt;/font&gt;&lt;/font&gt;" style="rhombus;whiteSpace=wrap;html=1;" vertex="1" parent="1">
          <mxGeometry x="-40" y="190" width="80" height="80" as="geometry" />
        </mxCell>
        <mxCell id="wgjURWxsdRWQiaUaBaEl-19" value="&lt;font style=&quot;vertical-align: inherit;&quot;&gt;&lt;font style=&quot;vertical-align: inherit;&quot;&gt;Nev&lt;/font&gt;&lt;/font&gt;" style="ellipse;whiteSpace=wrap;html=1;" vertex="1" parent="1">
          <mxGeometry x="810" y="270" width="120" height="80" as="geometry" />
        </mxCell>
        <mxCell id="wgjURWxsdRWQiaUaBaEl-20" value="&lt;font style=&quot;vertical-align: inherit;&quot;&gt;&lt;font style=&quot;vertical-align: inherit;&quot;&gt;Eletkor&lt;/font&gt;&lt;/font&gt;" style="ellipse;whiteSpace=wrap;html=1;" vertex="1" parent="1">
          <mxGeometry x="930" y="270" width="120" height="80" as="geometry" />
        </mxCell>
        <mxCell id="wgjURWxsdRWQiaUaBaEl-21" value="&lt;font style=&quot;vertical-align: inherit;&quot;&gt;&lt;font style=&quot;vertical-align: inherit;&quot;&gt;Fkod&lt;/font&gt;&lt;/font&gt;" style="ellipse;whiteSpace=wrap;html=1;" vertex="1" parent="1">
          <mxGeometry x="690" y="270" width="120" height="80" as="geometry" />
        </mxCell>
        <mxCell id="wgjURWxsdRWQiaUaBaEl-22" value="" style="endArrow=classic;html=1;rounded=0;entryX=0.5;entryY=0;entryDx=0;entryDy=0;exitX=0.5;exitY=1;exitDx=0;exitDy=0;" edge="1" parent="1" source="wgjURWxsdRWQiaUaBaEl-5" target="wgjURWxsdRWQiaUaBaEl-19">
          <mxGeometry width="50" height="50" relative="1" as="geometry">
            <mxPoint x="370" y="340" as="sourcePoint" />
            <mxPoint x="420" y="290" as="targetPoint" />
          </mxGeometry>
        </mxCell>
        <mxCell id="wgjURWxsdRWQiaUaBaEl-23" value="" style="endArrow=classic;html=1;rounded=0;entryX=0.5;entryY=0;entryDx=0;entryDy=0;exitX=0.5;exitY=1;exitDx=0;exitDy=0;" edge="1" parent="1" source="wgjURWxsdRWQiaUaBaEl-5" target="wgjURWxsdRWQiaUaBaEl-21">
          <mxGeometry width="50" height="50" relative="1" as="geometry">
            <mxPoint x="370" y="340" as="sourcePoint" />
            <mxPoint x="420" y="290" as="targetPoint" />
          </mxGeometry>
        </mxCell>
        <mxCell id="wgjURWxsdRWQiaUaBaEl-24" value="" style="endArrow=classic;html=1;rounded=0;entryX=0.5;entryY=0;entryDx=0;entryDy=0;exitX=0.5;exitY=1;exitDx=0;exitDy=0;" edge="1" parent="1" source="wgjURWxsdRWQiaUaBaEl-5" target="wgjURWxsdRWQiaUaBaEl-20">
          <mxGeometry width="50" height="50" relative="1" as="geometry">
            <mxPoint x="370" y="340" as="sourcePoint" />
            <mxPoint x="420" y="290" as="targetPoint" />
          </mxGeometry>
        </mxCell>
        <mxCell id="wgjURWxsdRWQiaUaBaEl-26" value="" style="ellipse;whiteSpace=wrap;html=1;fillColor=light-dark(#5E5E5E,var(--ge-dark-color, #121212));" vertex="1" parent="1">
          <mxGeometry x="570" y="270" width="120" height="80" as="geometry" />
        </mxCell>
        <mxCell id="wgjURWxsdRWQiaUaBaEl-27" value="&lt;font style=&quot;vertical-align: inherit;&quot;&gt;&lt;font style=&quot;vertical-align: inherit;&quot;&gt;Vegzetseg&lt;/font&gt;&lt;/font&gt;" style="ellipse;whiteSpace=wrap;html=1;fillColor=light-dark(#717171,var(--ge-dark-color, #121212));" vertex="1" parent="1">
          <mxGeometry x="580" y="275" width="100" height="70" as="geometry" />
        </mxCell>
        <mxCell id="wgjURWxsdRWQiaUaBaEl-28" value="" style="ellipse;whiteSpace=wrap;html=1;fillColor=light-dark(#7F7F7F,var(--ge-dark-color, #121212));" vertex="1" parent="1">
          <mxGeometry x="-100" y="490" width="120" height="80" as="geometry" />
        </mxCell>
        <mxCell id="wgjURWxsdRWQiaUaBaEl-29" value="&lt;font style=&quot;vertical-align: inherit;&quot;&gt;&lt;font style=&quot;vertical-align: inherit;&quot;&gt;Vegzetseg&lt;/font&gt;&lt;/font&gt;" style="ellipse;whiteSpace=wrap;html=1;fillColor=light-dark(#626262,var(--ge-dark-color, #121212));" vertex="1" parent="1">
          <mxGeometry x="-90" y="495" width="100" height="70" as="geometry" />
        </mxCell>
        <mxCell id="wgjURWxsdRWQiaUaBaEl-30" value="&lt;font style=&quot;vertical-align: inherit;&quot;&gt;&lt;font style=&quot;vertical-align: inherit;&quot;&gt;&lt;font style=&quot;vertical-align: inherit;&quot;&gt;&lt;font style=&quot;vertical-align: inherit;&quot;&gt;Szkod&lt;/font&gt;&lt;/font&gt;&lt;/font&gt;&lt;/font&gt;" style="ellipse;whiteSpace=wrap;html=1;" vertex="1" parent="1">
          <mxGeometry x="20" y="495" width="120" height="80" as="geometry" />
        </mxCell>
        <mxCell id="wgjURWxsdRWQiaUaBaEl-31" value="&lt;font style=&quot;vertical-align: inherit;&quot;&gt;&lt;font style=&quot;vertical-align: inherit;&quot;&gt;Nev&lt;/font&gt;&lt;/font&gt;" style="ellipse;whiteSpace=wrap;html=1;" vertex="1" parent="1">
          <mxGeometry x="140" y="495" width="120" height="80" as="geometry" />
        </mxCell>
        <mxCell id="wgjURWxsdRWQiaUaBaEl-32" value="&lt;font style=&quot;vertical-align: inherit;&quot;&gt;&lt;font style=&quot;vertical-align: inherit;&quot;&gt;reszleg&lt;/font&gt;&lt;/font&gt;" style="ellipse;whiteSpace=wrap;html=1;" vertex="1" parent="1">
          <mxGeometry x="260" y="495" width="120" height="80" as="geometry" />
        </mxCell>
        <mxCell id="wgjURWxsdRWQiaUaBaEl-34" value="&lt;font style=&quot;vertical-align: inherit;&quot;&gt;&lt;font style=&quot;vertical-align: inherit;&quot;&gt;Nev&lt;/font&gt;&lt;/font&gt;" style="ellipse;whiteSpace=wrap;html=1;" vertex="1" parent="1">
          <mxGeometry x="520" y="502.5" width="120" height="80" as="geometry" />
        </mxCell>
        <mxCell id="wgjURWxsdRWQiaUaBaEl-35" value="&lt;font style=&quot;vertical-align: inherit;&quot;&gt;&lt;font style=&quot;vertical-align: inherit;&quot;&gt;gyakorlat&lt;/font&gt;&lt;/font&gt;" style="ellipse;whiteSpace=wrap;html=1;" vertex="1" parent="1">
          <mxGeometry x="640" y="505" width="120" height="80" as="geometry" />
        </mxCell>
        <mxCell id="wgjURWxsdRWQiaUaBaEl-37" value="" style="ellipse;whiteSpace=wrap;html=1;fillColor=light-dark(#646464,var(--ge-dark-color, #121212));" vertex="1" parent="1">
          <mxGeometry x="760" y="505" width="120" height="80" as="geometry" />
        </mxCell>
        <mxCell id="wgjURWxsdRWQiaUaBaEl-38" value="&lt;font style=&quot;vertical-align: inherit;&quot;&gt;&lt;font style=&quot;vertical-align: inherit;&quot;&gt;&lt;font style=&quot;vertical-align: inherit;&quot;&gt;&lt;font style=&quot;vertical-align: inherit;&quot;&gt;muszak&lt;/font&gt;&lt;/font&gt;&lt;/font&gt;&lt;/font&gt;" style="ellipse;whiteSpace=wrap;html=1;fillColor=light-dark(#585858,var(--ge-dark-color, #121212));" vertex="1" parent="1">
          <mxGeometry x="770" y="507.5" width="100" height="75" as="geometry" />
        </mxCell>
        <mxCell id="wgjURWxsdRWQiaUaBaEl-40" value="&lt;font style=&quot;vertical-align: inherit;&quot;&gt;&lt;font style=&quot;vertical-align: inherit;&quot;&gt;kezdete&lt;/font&gt;&lt;/font&gt;" style="ellipse;whiteSpace=wrap;html=1;" vertex="1" parent="1">
          <mxGeometry x="587" y="610" width="120" height="80" as="geometry" />
        </mxCell>
        <mxCell id="wgjURWxsdRWQiaUaBaEl-41" value="&lt;font style=&quot;vertical-align: inherit;&quot;&gt;&lt;font style=&quot;vertical-align: inherit;&quot;&gt;idotartam&lt;/font&gt;&lt;/font&gt;" style="ellipse;whiteSpace=wrap;html=1;" vertex="1" parent="1">
          <mxGeometry x="707" y="610" width="120" height="80" as="geometry" />
        </mxCell>
        <mxCell id="wgjURWxsdRWQiaUaBaEl-43" value="&lt;font style=&quot;vertical-align: inherit;&quot;&gt;&lt;font style=&quot;vertical-align: inherit;&quot;&gt;Nev&lt;/font&gt;&lt;/font&gt;" style="ellipse;whiteSpace=wrap;html=1;" vertex="1" parent="1">
          <mxGeometry x="-230" y="290" width="120" height="80" as="geometry" />
        </mxCell>
        <mxCell id="wgjURWxsdRWQiaUaBaEl-44" value="&lt;font style=&quot;vertical-align: inherit;&quot;&gt;&lt;font style=&quot;vertical-align: inherit;&quot;&gt;Eletkor&lt;/font&gt;&lt;/font&gt;" style="ellipse;whiteSpace=wrap;html=1;" vertex="1" parent="1">
          <mxGeometry x="-110" y="290" width="120" height="80" as="geometry" />
        </mxCell>
        <mxCell id="wgjURWxsdRWQiaUaBaEl-45" value="&lt;font style=&quot;vertical-align: inherit;&quot;&gt;&lt;font style=&quot;vertical-align: inherit;&quot;&gt;cim&lt;/font&gt;&lt;/font&gt;" style="ellipse;whiteSpace=wrap;html=1;" vertex="1" parent="1">
          <mxGeometry x="10" y="290" width="120" height="80" as="geometry" />
        </mxCell>
        <mxCell id="wgjURWxsdRWQiaUaBaEl-46" value="&lt;font style=&quot;vertical-align: inherit;&quot;&gt;&lt;font style=&quot;vertical-align: inherit;&quot;&gt;varos&lt;/font&gt;&lt;/font&gt;" style="ellipse;whiteSpace=wrap;html=1;" vertex="1" parent="1">
          <mxGeometry x="50" y="390" width="120" height="80" as="geometry" />
        </mxCell>
        <mxCell id="wgjURWxsdRWQiaUaBaEl-47" value="utca" style="ellipse;whiteSpace=wrap;html=1;" vertex="1" parent="1">
          <mxGeometry x="-70" y="390" width="120" height="80" as="geometry" />
        </mxCell>
        <mxCell id="wgjURWxsdRWQiaUaBaEl-48" value="&lt;font style=&quot;vertical-align: inherit;&quot;&gt;&lt;font style=&quot;vertical-align: inherit;&quot;&gt;hazszam&lt;/font&gt;&lt;/font&gt;" style="ellipse;whiteSpace=wrap;html=1;" vertex="1" parent="1">
          <mxGeometry x="-190" y="390" width="120" height="80" as="geometry" />
        </mxCell>
        <mxCell id="wgjURWxsdRWQiaUaBaEl-49" value="" style="endArrow=classic;html=1;rounded=0;entryX=0.5;entryY=0;entryDx=0;entryDy=0;exitX=0.5;exitY=1;exitDx=0;exitDy=0;" edge="1" parent="1" source="wgjURWxsdRWQiaUaBaEl-4" target="wgjURWxsdRWQiaUaBaEl-45">
          <mxGeometry width="50" height="50" relative="1" as="geometry">
            <mxPoint x="170" y="320" as="sourcePoint" />
            <mxPoint x="220" y="270" as="targetPoint" />
          </mxGeometry>
        </mxCell>
        <mxCell id="wgjURWxsdRWQiaUaBaEl-50" value="" style="endArrow=classic;html=1;rounded=0;entryX=0.5;entryY=0;entryDx=0;entryDy=0;exitX=0.5;exitY=1;exitDx=0;exitDy=0;" edge="1" parent="1" source="wgjURWxsdRWQiaUaBaEl-4" target="wgjURWxsdRWQiaUaBaEl-44">
          <mxGeometry width="50" height="50" relative="1" as="geometry">
            <mxPoint x="170" y="330" as="sourcePoint" />
            <mxPoint x="220" y="280" as="targetPoint" />
          </mxGeometry>
        </mxCell>
        <mxCell id="wgjURWxsdRWQiaUaBaEl-51" value="" style="endArrow=classic;html=1;rounded=0;entryX=0.5;entryY=0;entryDx=0;entryDy=0;exitX=0.5;exitY=1;exitDx=0;exitDy=0;" edge="1" parent="1" source="wgjURWxsdRWQiaUaBaEl-4" target="wgjURWxsdRWQiaUaBaEl-43">
          <mxGeometry width="50" height="50" relative="1" as="geometry">
            <mxPoint x="170" y="330" as="sourcePoint" />
            <mxPoint x="220" y="280" as="targetPoint" />
          </mxGeometry>
        </mxCell>
        <mxCell id="wgjURWxsdRWQiaUaBaEl-56" value="" style="endArrow=classic;html=1;rounded=0;entryX=0.5;entryY=0;entryDx=0;entryDy=0;exitX=0.5;exitY=1;exitDx=0;exitDy=0;" edge="1" parent="1" source="wgjURWxsdRWQiaUaBaEl-5" target="wgjURWxsdRWQiaUaBaEl-26">
          <mxGeometry width="50" height="50" relative="1" as="geometry">
            <mxPoint x="170" y="330" as="sourcePoint" />
            <mxPoint x="220" y="280" as="targetPoint" />
          </mxGeometry>
        </mxCell>
        <mxCell id="wgjURWxsdRWQiaUaBaEl-57" value="" style="endArrow=classic;html=1;rounded=0;entryX=0.5;entryY=0;entryDx=0;entryDy=0;exitX=0.5;exitY=1;exitDx=0;exitDy=0;" edge="1" parent="1" source="wgjURWxsdRWQiaUaBaEl-45" target="wgjURWxsdRWQiaUaBaEl-46">
          <mxGeometry width="50" height="50" relative="1" as="geometry">
            <mxPoint x="170" y="330" as="sourcePoint" />
            <mxPoint x="220" y="280" as="targetPoint" />
          </mxGeometry>
        </mxCell>
        <mxCell id="wgjURWxsdRWQiaUaBaEl-58" value="" style="endArrow=classic;html=1;rounded=0;entryX=0.5;entryY=0;entryDx=0;entryDy=0;exitX=0.5;exitY=1;exitDx=0;exitDy=0;" edge="1" parent="1" source="wgjURWxsdRWQiaUaBaEl-45" target="wgjURWxsdRWQiaUaBaEl-47">
          <mxGeometry width="50" height="50" relative="1" as="geometry">
            <mxPoint x="170" y="330" as="sourcePoint" />
            <mxPoint x="220" y="280" as="targetPoint" />
          </mxGeometry>
        </mxCell>
        <mxCell id="wgjURWxsdRWQiaUaBaEl-59" value="" style="endArrow=classic;html=1;rounded=0;exitX=0.5;exitY=1;exitDx=0;exitDy=0;entryX=0.5;entryY=0;entryDx=0;entryDy=0;" edge="1" parent="1" source="wgjURWxsdRWQiaUaBaEl-45" target="wgjURWxsdRWQiaUaBaEl-48">
          <mxGeometry width="50" height="50" relative="1" as="geometry">
            <mxPoint x="170" y="330" as="sourcePoint" />
            <mxPoint x="220" y="280" as="targetPoint" />
          </mxGeometry>
        </mxCell>
        <mxCell id="wgjURWxsdRWQiaUaBaEl-60" value="" style="endArrow=classic;html=1;rounded=0;entryX=0.5;entryY=0;entryDx=0;entryDy=0;exitX=0.5;exitY=1;exitDx=0;exitDy=0;" edge="1" parent="1" source="wgjURWxsdRWQiaUaBaEl-2" target="wgjURWxsdRWQiaUaBaEl-32">
          <mxGeometry width="50" height="50" relative="1" as="geometry">
            <mxPoint x="170" y="430" as="sourcePoint" />
            <mxPoint x="460" y="500" as="targetPoint" />
          </mxGeometry>
        </mxCell>
        <mxCell id="wgjURWxsdRWQiaUaBaEl-61" value="" style="endArrow=classic;html=1;rounded=0;entryX=0.5;entryY=0;entryDx=0;entryDy=0;exitX=0.5;exitY=1;exitDx=0;exitDy=0;" edge="1" parent="1" source="wgjURWxsdRWQiaUaBaEl-2" target="wgjURWxsdRWQiaUaBaEl-31">
          <mxGeometry width="50" height="50" relative="1" as="geometry">
            <mxPoint x="170" y="430" as="sourcePoint" />
            <mxPoint x="220" y="380" as="targetPoint" />
          </mxGeometry>
        </mxCell>
        <mxCell id="wgjURWxsdRWQiaUaBaEl-62" value="" style="endArrow=classic;html=1;rounded=0;entryX=0.5;entryY=0;entryDx=0;entryDy=0;exitX=0.5;exitY=1;exitDx=0;exitDy=0;" edge="1" parent="1" source="wgjURWxsdRWQiaUaBaEl-2" target="wgjURWxsdRWQiaUaBaEl-30">
          <mxGeometry width="50" height="50" relative="1" as="geometry">
            <mxPoint x="170" y="430" as="sourcePoint" />
            <mxPoint x="220" y="380" as="targetPoint" />
          </mxGeometry>
        </mxCell>
        <mxCell id="wgjURWxsdRWQiaUaBaEl-63" value="" style="endArrow=classic;html=1;rounded=0;entryX=0.5;entryY=0;entryDx=0;entryDy=0;exitX=0.5;exitY=1;exitDx=0;exitDy=0;" edge="1" parent="1" source="wgjURWxsdRWQiaUaBaEl-2" target="wgjURWxsdRWQiaUaBaEl-28">
          <mxGeometry width="50" height="50" relative="1" as="geometry">
            <mxPoint x="170" y="430" as="sourcePoint" />
            <mxPoint x="220" y="380" as="targetPoint" />
          </mxGeometry>
        </mxCell>
        <mxCell id="wgjURWxsdRWQiaUaBaEl-64" value="" style="endArrow=classic;html=1;rounded=0;entryX=0.5;entryY=0;entryDx=0;entryDy=0;exitX=0.5;exitY=1;exitDx=0;exitDy=0;" edge="1" parent="1" source="wgjURWxsdRWQiaUaBaEl-35" target="wgjURWxsdRWQiaUaBaEl-41">
          <mxGeometry width="50" height="50" relative="1" as="geometry">
            <mxPoint x="170" y="430" as="sourcePoint" />
            <mxPoint x="220" y="380" as="targetPoint" />
          </mxGeometry>
        </mxCell>
        <mxCell id="wgjURWxsdRWQiaUaBaEl-65" value="" style="endArrow=classic;html=1;rounded=0;entryX=0.5;entryY=0;entryDx=0;entryDy=0;exitX=0.5;exitY=1;exitDx=0;exitDy=0;" edge="1" parent="1" source="wgjURWxsdRWQiaUaBaEl-35" target="wgjURWxsdRWQiaUaBaEl-40">
          <mxGeometry width="50" height="50" relative="1" as="geometry">
            <mxPoint x="170" y="430" as="sourcePoint" />
            <mxPoint x="220" y="380" as="targetPoint" />
          </mxGeometry>
        </mxCell>
        <mxCell id="wgjURWxsdRWQiaUaBaEl-66" value="" style="endArrow=classic;html=1;rounded=0;entryX=0.5;entryY=0;entryDx=0;entryDy=0;exitX=0.5;exitY=1;exitDx=0;exitDy=0;" edge="1" parent="1" source="wgjURWxsdRWQiaUaBaEl-1" target="wgjURWxsdRWQiaUaBaEl-38">
          <mxGeometry width="50" height="50" relative="1" as="geometry">
            <mxPoint x="170" y="430" as="sourcePoint" />
            <mxPoint x="220" y="380" as="targetPoint" />
          </mxGeometry>
        </mxCell>
        <mxCell id="wgjURWxsdRWQiaUaBaEl-67" value="" style="endArrow=classic;html=1;rounded=0;entryX=0.5;entryY=0;entryDx=0;entryDy=0;exitX=0.5;exitY=1;exitDx=0;exitDy=0;" edge="1" parent="1" source="wgjURWxsdRWQiaUaBaEl-1" target="wgjURWxsdRWQiaUaBaEl-35">
          <mxGeometry width="50" height="50" relative="1" as="geometry">
            <mxPoint x="170" y="430" as="sourcePoint" />
            <mxPoint x="220" y="380" as="targetPoint" />
          </mxGeometry>
        </mxCell>
        <mxCell id="wgjURWxsdRWQiaUaBaEl-68" value="" style="endArrow=classic;html=1;rounded=0;entryX=0.5;entryY=0;entryDx=0;entryDy=0;exitX=0.5;exitY=1;exitDx=0;exitDy=0;" edge="1" parent="1" source="wgjURWxsdRWQiaUaBaEl-1" target="wgjURWxsdRWQiaUaBaEl-34">
          <mxGeometry width="50" height="50" relative="1" as="geometry">
            <mxPoint x="170" y="430" as="sourcePoint" />
            <mxPoint x="220" y="380" as="targetPoint" />
          </mxGeometry>
        </mxCell>
        <mxCell id="wgjURWxsdRWQiaUaBaEl-71" value="cim" style="ellipse;whiteSpace=wrap;html=1;" vertex="1" parent="1">
          <mxGeometry x="-740" y="300" width="120" height="80" as="geometry" />
        </mxCell>
        <mxCell id="wgjURWxsdRWQiaUaBaEl-72" value="varos" style="ellipse;whiteSpace=wrap;html=1;" vertex="1" parent="1">
          <mxGeometry x="-580" y="400" width="120" height="80" as="geometry" />
        </mxCell>
        <mxCell id="wgjURWxsdRWQiaUaBaEl-73" value="utca" style="ellipse;whiteSpace=wrap;html=1;" vertex="1" parent="1">
          <mxGeometry x="-700" y="400" width="120" height="80" as="geometry" />
        </mxCell>
        <mxCell id="wgjURWxsdRWQiaUaBaEl-74" value="hazszam" style="ellipse;whiteSpace=wrap;html=1;" vertex="1" parent="1">
          <mxGeometry x="-820" y="400" width="120" height="80" as="geometry" />
        </mxCell>
        <mxCell id="wgjURWxsdRWQiaUaBaEl-75" value="csillag" style="ellipse;whiteSpace=wrap;html=1;" vertex="1" parent="1">
          <mxGeometry x="-620" y="300" width="120" height="80" as="geometry" />
        </mxCell>
        <mxCell id="wgjURWxsdRWQiaUaBaEl-76" value="nev" style="ellipse;whiteSpace=wrap;html=1;" vertex="1" parent="1">
          <mxGeometry x="-500" y="300" width="120" height="80" as="geometry" />
        </mxCell>
        <mxCell id="wgjURWxsdRWQiaUaBaEl-78" value="" style="endArrow=classic;html=1;rounded=0;entryX=0.5;entryY=0;entryDx=0;entryDy=0;exitX=0.5;exitY=1;exitDx=0;exitDy=0;" edge="1" parent="1" source="wgjURWxsdRWQiaUaBaEl-71" target="wgjURWxsdRWQiaUaBaEl-72">
          <mxGeometry width="50" height="50" relative="1" as="geometry">
            <mxPoint x="-390" y="410" as="sourcePoint" />
            <mxPoint x="-340" y="360" as="targetPoint" />
          </mxGeometry>
        </mxCell>
        <mxCell id="wgjURWxsdRWQiaUaBaEl-80" value="" style="endArrow=classic;html=1;rounded=0;entryX=0.5;entryY=0;entryDx=0;entryDy=0;exitX=0.5;exitY=1;exitDx=0;exitDy=0;" edge="1" parent="1" source="wgjURWxsdRWQiaUaBaEl-71" target="wgjURWxsdRWQiaUaBaEl-73">
          <mxGeometry width="50" height="50" relative="1" as="geometry">
            <mxPoint x="-300" y="470" as="sourcePoint" />
            <mxPoint x="-250" y="420" as="targetPoint" />
          </mxGeometry>
        </mxCell>
        <mxCell id="wgjURWxsdRWQiaUaBaEl-81" value="" style="endArrow=classic;html=1;rounded=0;entryX=0.5;entryY=0;entryDx=0;entryDy=0;exitX=0.5;exitY=1;exitDx=0;exitDy=0;" edge="1" parent="1" source="wgjURWxsdRWQiaUaBaEl-71" target="wgjURWxsdRWQiaUaBaEl-74">
          <mxGeometry width="50" height="50" relative="1" as="geometry">
            <mxPoint x="-300" y="470" as="sourcePoint" />
            <mxPoint x="-250" y="420" as="targetPoint" />
          </mxGeometry>
        </mxCell>
        <mxCell id="wgjURWxsdRWQiaUaBaEl-82" value="" style="endArrow=classic;html=1;rounded=0;entryX=0.5;entryY=0;entryDx=0;entryDy=0;exitX=0.5;exitY=1;exitDx=0;exitDy=0;" edge="1" parent="1" source="wgjURWxsdRWQiaUaBaEl-3" target="wgjURWxsdRWQiaUaBaEl-75">
          <mxGeometry width="50" height="50" relative="1" as="geometry">
            <mxPoint x="-180" y="230" as="sourcePoint" />
            <mxPoint x="-250" y="420" as="targetPoint" />
          </mxGeometry>
        </mxCell>
        <mxCell id="wgjURWxsdRWQiaUaBaEl-83" value="" style="endArrow=classic;html=1;rounded=0;entryX=0.5;entryY=0;entryDx=0;entryDy=0;exitX=0.5;exitY=1;exitDx=0;exitDy=0;" edge="1" parent="1" source="wgjURWxsdRWQiaUaBaEl-3" target="wgjURWxsdRWQiaUaBaEl-71">
          <mxGeometry width="50" height="50" relative="1" as="geometry">
            <mxPoint x="-190" y="150" as="sourcePoint" />
            <mxPoint x="-140" y="100" as="targetPoint" />
          </mxGeometry>
        </mxCell>
        <mxCell id="wgjURWxsdRWQiaUaBaEl-84" value="" style="endArrow=classic;html=1;rounded=0;entryX=0.5;entryY=0;entryDx=0;entryDy=0;exitX=0.5;exitY=1;exitDx=0;exitDy=0;" edge="1" parent="1" source="wgjURWxsdRWQiaUaBaEl-3" target="wgjURWxsdRWQiaUaBaEl-76">
          <mxGeometry width="50" height="50" relative="1" as="geometry">
            <mxPoint x="-190" y="150" as="sourcePoint" />
            <mxPoint x="-140" y="100" as="targetPoint" />
          </mxGeometry>
        </mxCell>
        <mxCell id="wgjURWxsdRWQiaUaBaEl-86" value="&lt;u&gt;Fkod&lt;/u&gt;" style="rhombus;whiteSpace=wrap;html=1;" vertex="1" parent="1">
          <mxGeometry x="627" y="180" width="80" height="80" as="geometry" />
        </mxCell>
        <mxCell id="wgjURWxsdRWQiaUaBaEl-87" value="" style="endArrow=classic;html=1;rounded=0;entryX=1;entryY=0.5;entryDx=0;entryDy=0;exitX=0;exitY=0.5;exitDx=0;exitDy=0;" edge="1" parent="1" source="wgjURWxsdRWQiaUaBaEl-5" target="wgjURWxsdRWQiaUaBaEl-86">
          <mxGeometry width="50" height="50" relative="1" as="geometry">
            <mxPoint x="470" y="390" as="sourcePoint" />
            <mxPoint x="520" y="340" as="targetPoint" />
          </mxGeometry>
        </mxCell>
        <mxCell id="wgjURWxsdRWQiaUaBaEl-88" value="&lt;u&gt;Szkod&lt;/u&gt;" style="rhombus;whiteSpace=wrap;html=1;" vertex="1" parent="1">
          <mxGeometry x="350" y="390" width="80" height="80" as="geometry" />
        </mxCell>
        <mxCell id="wgjURWxsdRWQiaUaBaEl-89" value="" style="endArrow=classic;html=1;rounded=0;entryX=0;entryY=0.5;entryDx=0;entryDy=0;exitX=1;exitY=0.5;exitDx=0;exitDy=0;" edge="1" parent="1" source="wgjURWxsdRWQiaUaBaEl-2" target="wgjURWxsdRWQiaUaBaEl-88">
          <mxGeometry width="50" height="50" relative="1" as="geometry">
            <mxPoint x="300" y="450" as="sourcePoint" />
            <mxPoint x="350" y="400" as="targetPoint" />
          </mxGeometry>
        </mxCell>
        <mxCell id="wgjURWxsdRWQiaUaBaEl-90" value="vendeglatas" style="ellipse;whiteSpace=wrap;html=1;" vertex="1" parent="1">
          <mxGeometry x="354" y="-140" width="120" height="80" as="geometry" />
        </mxCell>
        <mxCell id="wgjURWxsdRWQiaUaBaEl-92" value="&lt;u&gt;Vkod&lt;/u&gt;" style="rhombus;whiteSpace=wrap;html=1;" vertex="1" parent="1">
          <mxGeometry x="230" y="190" width="80" height="80" as="geometry" />
        </mxCell>
        <mxCell id="wgjURWxsdRWQiaUaBaEl-94" value="" style="endArrow=classic;html=1;rounded=0;entryX=0;entryY=0.5;entryDx=0;entryDy=0;exitX=1;exitY=0.5;exitDx=0;exitDy=0;" edge="1" parent="1" source="wgjURWxsdRWQiaUaBaEl-2" target="wgjURWxsdRWQiaUaBaEl-6">
          <mxGeometry width="50" height="50" relative="1" as="geometry">
            <mxPoint x="100" y="390" as="sourcePoint" />
            <mxPoint x="150" y="340" as="targetPoint" />
          </mxGeometry>
        </mxCell>
        <mxCell id="wgjURWxsdRWQiaUaBaEl-95" value="" style="endArrow=classic;html=1;rounded=0;entryX=0;entryY=0.5;entryDx=0;entryDy=0;exitX=1;exitY=0.5;exitDx=0;exitDy=0;" edge="1" parent="1" source="wgjURWxsdRWQiaUaBaEl-4" target="wgjURWxsdRWQiaUaBaEl-92">
          <mxGeometry width="50" height="50" relative="1" as="geometry">
            <mxPoint x="440" y="390" as="sourcePoint" />
            <mxPoint x="490" y="340" as="targetPoint" />
          </mxGeometry>
        </mxCell>
        <mxCell id="wgjURWxsdRWQiaUaBaEl-97" value="" style="endArrow=classic;html=1;rounded=0;entryX=1;entryY=0.5;entryDx=0;entryDy=0;exitX=0;exitY=0.5;exitDx=0;exitDy=0;" edge="1" parent="1" source="wgjURWxsdRWQiaUaBaEl-4" target="wgjURWxsdRWQiaUaBaEl-9">
          <mxGeometry width="50" height="50" relative="1" as="geometry">
            <mxPoint x="440" y="390" as="sourcePoint" />
            <mxPoint x="490" y="340" as="targetPoint" />
          </mxGeometry>
        </mxCell>
        <mxCell id="wgjURWxsdRWQiaUaBaEl-98" value="" style="endArrow=classic;html=1;rounded=0;entryX=0;entryY=0.5;entryDx=0;entryDy=0;exitX=1;exitY=0.5;exitDx=0;exitDy=0;" edge="1" parent="1" source="wgjURWxsdRWQiaUaBaEl-5" target="wgjURWxsdRWQiaUaBaEl-8">
          <mxGeometry width="50" height="50" relative="1" as="geometry">
            <mxPoint x="440" y="390" as="sourcePoint" />
            <mxPoint x="490" y="340" as="targetPoint" />
          </mxGeometry>
        </mxCell>
        <mxCell id="wgjURWxsdRWQiaUaBaEl-99" value="" style="endArrow=classic;html=1;rounded=0;entryX=0;entryY=0.5;entryDx=0;entryDy=0;exitX=1;exitY=0.5;exitDx=0;exitDy=0;" edge="1" parent="1" source="wgjURWxsdRWQiaUaBaEl-1" target="wgjURWxsdRWQiaUaBaEl-7">
          <mxGeometry width="50" height="50" relative="1" as="geometry">
            <mxPoint x="440" y="390" as="sourcePoint" />
            <mxPoint x="490" y="340" as="targetPoint" />
          </mxGeometry>
        </mxCell>
        <mxCell id="wgjURWxsdRWQiaUaBaEl-100" value="&lt;u&gt;Gykod&lt;/u&gt;" style="rhombus;whiteSpace=wrap;html=1;" vertex="1" parent="1">
          <mxGeometry x="780" y="380" width="80" height="80" as="geometry" />
        </mxCell>
        <mxCell id="wgjURWxsdRWQiaUaBaEl-101" value="" style="endArrow=classic;html=1;rounded=0;entryX=0;entryY=0.5;entryDx=0;entryDy=0;exitX=1;exitY=0.5;exitDx=0;exitDy=0;" edge="1" parent="1" source="wgjURWxsdRWQiaUaBaEl-1" target="wgjURWxsdRWQiaUaBaEl-100">
          <mxGeometry width="50" height="50" relative="1" as="geometry">
            <mxPoint x="440" y="500" as="sourcePoint" />
            <mxPoint x="490" y="450" as="targetPoint" />
          </mxGeometry>
        </mxCell>
        <mxCell id="wgjURWxsdRWQiaUaBaEl-102" value="&lt;u&gt;Ekod&lt;/u&gt;" style="rhombus;whiteSpace=wrap;html=1;" vertex="1" parent="1">
          <mxGeometry x="-340" y="150" width="80" height="80" as="geometry" />
        </mxCell>
        <mxCell id="wgjURWxsdRWQiaUaBaEl-104" value="" style="endArrow=classic;html=1;rounded=0;entryX=0;entryY=0.5;entryDx=0;entryDy=0;exitX=1;exitY=0.5;exitDx=0;exitDy=0;" edge="1" parent="1" source="wgjURWxsdRWQiaUaBaEl-3" target="wgjURWxsdRWQiaUaBaEl-102">
          <mxGeometry width="50" height="50" relative="1" as="geometry">
            <mxPoint x="-350" y="370" as="sourcePoint" />
            <mxPoint x="-300" y="320" as="targetPoint" />
          </mxGeometry>
        </mxCell>
        <mxCell id="wgjURWxsdRWQiaUaBaEl-105" value="" style="endArrow=classic;html=1;rounded=0;entryX=0.5;entryY=0;entryDx=0;entryDy=0;exitX=0.5;exitY=1;exitDx=0;exitDy=0;" edge="1" parent="1" source="wgjURWxsdRWQiaUaBaEl-90" target="wgjURWxsdRWQiaUaBaEl-3">
          <mxGeometry width="50" height="50" relative="1" as="geometry">
            <mxPoint x="200" y="210" as="sourcePoint" />
            <mxPoint x="-420" y="80" as="targetPoint" />
          </mxGeometry>
        </mxCell>
        <mxCell id="wgjURWxsdRWQiaUaBaEl-106" value="" style="endArrow=classic;html=1;rounded=0;entryX=0.5;entryY=0;entryDx=0;entryDy=0;exitX=0.5;exitY=1;exitDx=0;exitDy=0;" edge="1" parent="1" source="wgjURWxsdRWQiaUaBaEl-90" target="wgjURWxsdRWQiaUaBaEl-4">
          <mxGeometry width="50" height="50" relative="1" as="geometry">
            <mxPoint x="200" y="210" as="sourcePoint" />
            <mxPoint x="250" y="160" as="targetPoint" />
          </mxGeometry>
        </mxCell>
        <mxCell id="wgjURWxsdRWQiaUaBaEl-107" value="" style="endArrow=classic;html=1;rounded=0;entryX=0.5;entryY=0;entryDx=0;entryDy=0;exitX=0.5;exitY=1;exitDx=0;exitDy=0;" edge="1" parent="1" source="wgjURWxsdRWQiaUaBaEl-90" target="wgjURWxsdRWQiaUaBaEl-5">
          <mxGeometry width="50" height="50" relative="1" as="geometry">
            <mxPoint x="200" y="210" as="sourcePoint" />
            <mxPoint x="250" y="160" as="targetPoint" />
          </mxGeometry>
        </mxCell>
        <mxCell id="wgjURWxsdRWQiaUaBaEl-109" value="" style="endArrow=classic;html=1;rounded=0;entryX=0.5;entryY=0;entryDx=0;entryDy=0;exitX=0.5;exitY=1;exitDx=0;exitDy=0;" edge="1" parent="1" source="wgjURWxsdRWQiaUaBaEl-90" target="wgjURWxsdRWQiaUaBaEl-2">
          <mxGeometry width="50" height="50" relative="1" as="geometry">
            <mxPoint x="200" y="210" as="sourcePoint" />
            <mxPoint x="250" y="160" as="targetPoint" />
          </mxGeometry>
        </mxCell>
        <mxCell id="wgjURWxsdRWQiaUaBaEl-110" value="" style="endArrow=classic;html=1;rounded=0;entryX=0.5;entryY=0;entryDx=0;entryDy=0;exitX=0.5;exitY=1;exitDx=0;exitDy=0;" edge="1" parent="1" source="wgjURWxsdRWQiaUaBaEl-90" target="wgjURWxsdRWQiaUaBaEl-1">
          <mxGeometry width="50" height="50" relative="1" as="geometry">
            <mxPoint x="200" y="210" as="sourcePoint" />
            <mxPoint x="250" y="160" as="targetPoint" />
          </mxGeometry>
        </mxCell>
        <mxCell id="wgjURWxsdRWQiaUaBaEl-115" value="rendeles" style="ellipse;whiteSpace=wrap;html=1;" vertex="1" parent="1">
          <mxGeometry x="1210" y="190" width="100" height="80" as="geometry" />
        </mxCell>
        <mxCell id="wgjURWxsdRWQiaUaBaEl-116" value="osszeg" style="ellipse;whiteSpace=wrap;html=1;" vertex="1" parent="1">
          <mxGeometry x="1130" y="270" width="120" height="80" as="geometry" />
        </mxCell>
        <mxCell id="wgjURWxsdRWQiaUaBaEl-117" value="etel" style="ellipse;whiteSpace=wrap;html=1;" vertex="1" parent="1">
          <mxGeometry x="1280" y="265" width="120" height="80" as="geometry" />
        </mxCell>
        <mxCell id="wgjURWxsdRWQiaUaBaEl-118" value="" style="endArrow=classic;html=1;rounded=0;entryX=0.5;entryY=0;entryDx=0;entryDy=0;exitX=0.5;exitY=1;exitDx=0;exitDy=0;" edge="1" parent="1" source="wgjURWxsdRWQiaUaBaEl-115" target="wgjURWxsdRWQiaUaBaEl-116">
          <mxGeometry width="50" height="50" relative="1" as="geometry">
            <mxPoint x="1070" y="220" as="sourcePoint" />
            <mxPoint x="1120" y="170" as="targetPoint" />
          </mxGeometry>
        </mxCell>
        <mxCell id="wgjURWxsdRWQiaUaBaEl-119" value="" style="endArrow=classic;html=1;rounded=0;entryX=0.5;entryY=0;entryDx=0;entryDy=0;exitX=0.5;exitY=1;exitDx=0;exitDy=0;" edge="1" parent="1" source="wgjURWxsdRWQiaUaBaEl-115" target="wgjURWxsdRWQiaUaBaEl-117">
          <mxGeometry width="50" height="50" relative="1" as="geometry">
            <mxPoint x="1070" y="220" as="sourcePoint" />
            <mxPoint x="1340" y="260" as="targetPoint" />
          </mxGeometry>
        </mxCell>
        <mxCell id="wgjURWxsdRWQiaUaBaEl-120" value="&lt;u&gt;E-V-V&lt;/u&gt;" style="rhombus;whiteSpace=wrap;html=1;" vertex="1" parent="1">
          <mxGeometry x="1060" y="190" width="80" height="80" as="geometry" />
        </mxCell>
        <mxCell id="wgjURWxsdRWQiaUaBaEl-121" value="&lt;u&gt;E_V_E&lt;/u&gt;" style="rhombus;whiteSpace=wrap;html=1;" vertex="1" parent="1">
          <mxGeometry x="1370" y="170" width="80" height="80" as="geometry" />
        </mxCell>
        <mxCell id="wgjURWxsdRWQiaUaBaEl-122" value="" style="endArrow=classic;html=1;rounded=0;entryX=1;entryY=0.5;entryDx=0;entryDy=0;exitX=0;exitY=0.5;exitDx=0;exitDy=0;" edge="1" parent="1" source="wgjURWxsdRWQiaUaBaEl-115" target="wgjURWxsdRWQiaUaBaEl-120">
          <mxGeometry width="50" height="50" relative="1" as="geometry">
            <mxPoint x="1070" y="220" as="sourcePoint" />
            <mxPoint x="1120" y="170" as="targetPoint" />
          </mxGeometry>
        </mxCell>
        <mxCell id="wgjURWxsdRWQiaUaBaEl-123" value="" style="endArrow=classic;html=1;rounded=0;entryX=0;entryY=0.5;entryDx=0;entryDy=0;exitX=1;exitY=0.5;exitDx=0;exitDy=0;" edge="1" parent="1" source="wgjURWxsdRWQiaUaBaEl-115" target="wgjURWxsdRWQiaUaBaEl-121">
          <mxGeometry width="50" height="50" relative="1" as="geometry">
            <mxPoint x="1070" y="220" as="sourcePoint" />
            <mxPoint x="1120" y="170" as="targetPoint" />
          </mxGeometry>
        </mxCell>
        <mxCell id="wgjURWxsdRWQiaUaBaEl-124" value="" style="endArrow=classic;html=1;rounded=0;exitX=0.5;exitY=1;exitDx=0;exitDy=0;entryX=0.5;entryY=1;entryDx=0;entryDy=0;" edge="1" parent="1" source="wgjURWxsdRWQiaUaBaEl-120" target="wgjURWxsdRWQiaUaBaEl-92">
          <mxGeometry width="50" height="50" relative="1" as="geometry">
            <mxPoint x="770" y="470" as="sourcePoint" />
            <mxPoint x="820" y="420" as="targetPoint" />
            <Array as="points">
              <mxPoint x="960" y="760" />
              <mxPoint x="660" y="800" />
              <mxPoint x="440" y="640" />
            </Array>
          </mxGeometry>
        </mxCell>
        <mxCell id="wgjURWxsdRWQiaUaBaEl-126" value="" style="endArrow=classic;html=1;rounded=0;entryX=0.5;entryY=0;entryDx=0;entryDy=0;exitX=0.5;exitY=1;exitDx=0;exitDy=0;" edge="1" parent="1" source="wgjURWxsdRWQiaUaBaEl-90" target="wgjURWxsdRWQiaUaBaEl-115">
          <mxGeometry width="50" height="50" relative="1" as="geometry">
            <mxPoint x="1070" y="200" as="sourcePoint" />
            <mxPoint x="1120" y="150" as="targetPoint" />
          </mxGeometry>
        </mxCell>
        <mxCell id="wgjURWxsdRWQiaUaBaEl-127" value="" style="endArrow=classic;html=1;rounded=0;exitX=0.5;exitY=1;exitDx=0;exitDy=0;entryX=0;entryY=0;entryDx=0;entryDy=0;" edge="1" parent="1" source="wgjURWxsdRWQiaUaBaEl-8" target="wgjURWxsdRWQiaUaBaEl-102">
          <mxGeometry width="50" height="50" relative="1" as="geometry">
            <mxPoint x="670" y="450" as="sourcePoint" />
            <mxPoint x="720" y="400" as="targetPoint" />
            <Array as="points">
              <mxPoint x="890" y="740" />
              <mxPoint x="160" y="750" />
              <mxPoint x="-200" y="690" />
              <mxPoint x="-390" y="160" />
            </Array>
          </mxGeometry>
        </mxCell>
        <mxCell id="wgjURWxsdRWQiaUaBaEl-128" value="" style="endArrow=classic;html=1;rounded=0;entryX=0;entryY=1;entryDx=0;entryDy=0;exitX=0.5;exitY=1;exitDx=0;exitDy=0;" edge="1" parent="1" source="wgjURWxsdRWQiaUaBaEl-9" target="wgjURWxsdRWQiaUaBaEl-102">
          <mxGeometry width="50" height="50" relative="1" as="geometry">
            <mxPoint x="70" y="460" as="sourcePoint" />
            <mxPoint x="120" y="410" as="targetPoint" />
            <Array as="points">
              <mxPoint x="-360" y="310" />
              <mxPoint x="-410" y="240" />
            </Array>
          </mxGeometry>
        </mxCell>
        <mxCell id="wgjURWxsdRWQiaUaBaEl-129" value="" style="endArrow=classic;html=1;rounded=0;exitX=0.5;exitY=1;exitDx=0;exitDy=0;entryX=0.5;entryY=1;entryDx=0;entryDy=0;" edge="1" parent="1" source="wgjURWxsdRWQiaUaBaEl-6" target="wgjURWxsdRWQiaUaBaEl-102">
          <mxGeometry width="50" height="50" relative="1" as="geometry">
            <mxPoint x="650" y="460" as="sourcePoint" />
            <mxPoint x="460" y="590" as="targetPoint" />
            <Array as="points">
              <mxPoint x="160" y="660" />
              <mxPoint x="-250" y="710" />
              <mxPoint x="-400" y="260" />
            </Array>
          </mxGeometry>
        </mxCell>
        <mxCell id="wgjURWxsdRWQiaUaBaEl-130" value="" style="endArrow=classic;html=1;rounded=0;exitX=0.5;exitY=1;exitDx=0;exitDy=0;entryX=0.5;entryY=0;entryDx=0;entryDy=0;" edge="1" parent="1" source="wgjURWxsdRWQiaUaBaEl-7" target="wgjURWxsdRWQiaUaBaEl-102">
          <mxGeometry width="50" height="50" relative="1" as="geometry">
            <mxPoint x="640" y="460" as="sourcePoint" />
            <mxPoint x="690" y="410" as="targetPoint" />
            <Array as="points">
              <mxPoint x="-110" y="670" />
              <mxPoint x="-400" y="140" />
            </Array>
          </mxGeometry>
        </mxCell>
      </root>
    </mxGraphModel>
  </diagram>
</mxfile>
